<svg width="24" height="24" viewBox="0 0 24 24" fill="none" xmlns="http://www.w3.org/2000/svg">
    <rect opacity="0.01" width="24" height="24" fill="white"/>
    <path d="M5.11079 16.437C5.11079 16.9833 4.66437 17.4263 4.11369 17.4263C3.563 17.4263 3.11658 16.9833 3.11658 16.437C3.11658 16.0784 3.54602 15.3746 3.84111 14.9331C3.97066 14.7397 4.25671 14.7397 4.38608 14.9331C4.68135 15.3746 5.11079 16.0784 5.11079 16.437Z" fill="#A0ECFF"/>
    <path d="M5.11062 16.437C5.11062 16.9832 4.66457 17.4263 4.1137 17.4263C3.97566 17.4263 3.84407 17.3983 3.72449 17.3479C4.08196 17.1978 4.33257 16.8462 4.33257 16.437C4.33257 16.1235 4.00445 15.5461 3.72486 15.1109C3.76472 15.0485 3.80384 14.9891 3.84075 14.9337C3.9703 14.7399 4.25654 14.7394 4.38609 14.9331C4.68136 15.3746 5.11062 16.0784 5.11062 16.437Z" fill="#60DAFF"/>
    <path d="M9.60994 16.437C9.60994 16.9833 9.16352 17.4263 8.61283 17.4263C8.06214 17.4263 7.61572 16.9833 7.61572 16.437C7.61572 16.0784 8.04516 15.3746 8.34026 14.9331C8.46981 14.7397 8.75586 14.7397 8.88522 14.9331C9.1805 15.3746 9.60994 16.0784 9.60994 16.437Z" fill="#A0ECFF"/>
    <path d="M9.60977 16.437C9.60977 16.9832 9.16372 17.4263 8.61284 17.4263C8.4748 17.4263 8.3434 17.3983 8.22363 17.3479C8.5811 17.1978 8.83172 16.8462 8.83172 16.437C8.83172 16.1235 8.50359 15.5461 8.224 15.1109C8.26405 15.0485 8.30299 14.9891 8.3399 14.9337C8.46945 14.7399 8.75568 14.7394 8.88523 14.9331C9.18051 15.3746 9.60977 16.0784 9.60977 16.437Z" fill="#60DAFF"/>
    <path d="M14.109 16.437C14.109 16.9833 13.6625 17.4263 13.1119 17.4263C12.5612 17.4263 12.1147 16.9833 12.1147 16.437C12.1147 16.0784 12.5442 15.3746 12.8395 14.9331C12.9688 14.7397 13.2549 14.7397 13.3842 14.9331C13.6797 15.3746 14.109 16.0784 14.109 16.437Z" fill="#A0ECFF"/>
    <path d="M14.109 16.437C14.109 16.9832 13.6627 17.4263 13.1119 17.4263C12.9738 17.4263 12.8424 17.3983 12.7227 17.3479C13.0801 17.1978 13.3307 16.8462 13.3307 16.437C13.3307 16.1235 13.0026 15.5461 12.723 15.1109C12.7631 15.0485 12.802 14.9891 12.8391 14.9337C12.9685 14.7399 13.2549 14.7394 13.3844 14.9331C13.6795 15.3746 14.109 16.0784 14.109 16.437Z" fill="#60DAFF"/>
    <path d="M20.6086 6.08445C20.3988 2.68975 17.5219 0 14.0027 0C11.1648 0 8.74432 1.74971 7.80353 4.20759C5.35962 4.23646 3.38721 6.18469 3.38721 8.58519C3.38721 11.0036 5.3891 12.9642 7.85846 12.9642H20.486C22.4265 12.9642 23.9998 11.4234 23.9998 9.5229C23.9998 7.66254 22.4924 6.14793 20.6086 6.08445Z" fill="#C4E1E8"/>
    <path d="M24.0001 9.52254C24.0001 11.4231 22.4266 12.9642 20.4859 12.9642H20.2136C20.4685 12.4877 20.6126 11.9455 20.6126 11.3705C20.6126 9.51035 19.1053 7.99556 17.2217 7.93207C17.0118 4.53756 14.1345 1.84745 10.6154 1.84745C10.141 1.84745 9.67828 1.8964 9.23242 1.98929C10.4363 0.763224 12.1284 0 14.0029 0C17.522 0 20.3991 2.68939 20.6089 6.08463C22.4927 6.14757 24.0001 7.66236 24.0001 9.52254Z" fill="#A4D5DD"/>
    <path d="M18.8567 5.68961C18.6932 5.68961 18.5449 5.5804 18.5049 5.41775C18.4434 5.16741 18.3594 4.92083 18.255 4.68447C18.1757 4.50479 18.2601 4.29605 18.4438 4.21822C18.6274 4.14039 18.8404 4.22324 18.9199 4.40293C19.0407 4.6764 19.1379 4.96207 19.2092 5.25187C19.256 5.44232 19.1361 5.63384 18.9417 5.67975C18.9133 5.68638 18.8847 5.68961 18.8567 5.68961Z" fill="#C4E1E8"/>
    <path d="M17.6064 3.4543C17.5112 3.4543 17.4163 3.41771 17.3451 3.34527C16.4616 2.4436 15.2745 1.94704 14.0029 1.94704C13.8029 1.94704 13.6409 1.78833 13.6409 1.59251C13.6409 1.3965 13.8029 1.23779 14.0029 1.23779C15.4738 1.23779 16.8463 1.81182 17.8677 2.8539C18.0063 2.99522 18.0015 3.21991 17.8572 3.35549C17.7869 3.42148 17.6967 3.4543 17.6064 3.4543Z" fill="#C4E1E8"/>
    <path d="M2.42432 8.04578C2.57446 5.61874 4.63129 3.6958 7.14697 3.6958C9.17596 3.6958 10.9065 4.9468 11.579 6.70386C13.3262 6.72467 14.7363 8.11751 14.7363 9.83351C14.7363 11.5626 13.3052 12.9642 11.5397 12.9642C10.8007 12.9642 3.27136 12.9642 2.51221 12.9642C1.12463 12.9642 0 11.8626 0 10.5038C0 9.17394 1.07758 8.09115 2.42432 8.04578Z" fill="#F0F5F7"/>
    <path d="M14.7364 9.83369C14.7364 11.5477 13.329 12.9402 11.5839 12.9633C12.107 12.4056 12.4261 11.6627 12.4261 10.8464C12.4261 9.13036 11.0162 7.73733 9.26849 7.71653C8.59613 5.95965 6.86597 4.70847 4.83661 4.70847C4.59674 4.70847 4.36145 4.72622 4.1311 4.75994C4.94958 4.09517 6.00043 3.6958 7.14685 3.6958C9.17621 3.6958 10.9064 4.94644 11.5789 6.70386C13.3267 6.72467 14.7364 8.11715 14.7364 9.83369Z" fill="#DDE9ED"/>
    <path d="M18.6081 16.437C18.6081 16.9833 18.1617 17.4263 17.611 17.4263C17.0603 17.4263 16.6139 16.9833 16.6139 16.437C16.6139 16.0784 17.0433 15.3746 17.3386 14.9331C17.468 14.7397 17.7542 14.7397 17.8834 14.9331C18.1789 15.3746 18.6081 16.0784 18.6081 16.437Z" fill="#A0ECFF"/>
    <path d="M18.6081 16.437C18.6081 16.9832 18.1619 17.4263 17.611 17.4263C17.473 17.4263 17.3416 17.3983 17.2218 17.3479C17.5795 17.1978 17.8299 16.8462 17.8299 16.437C17.8299 16.1235 17.5018 15.5461 17.2222 15.1109C17.2622 15.0485 17.3013 14.9891 17.3383 14.9337C17.4676 14.7399 17.754 14.7394 17.8836 14.9331C18.1787 15.3746 18.6081 16.0784 18.6081 16.437Z" fill="#60DAFF"/>
    <path d="M5.11079 23.0106C5.11079 23.557 4.66437 24 4.11369 24C3.563 24 3.11658 23.557 3.11658 23.0106C3.11658 22.6521 3.54602 21.9484 3.84111 21.507C3.97066 21.3134 4.25671 21.3134 4.38608 21.507C4.68135 21.9484 5.11079 22.6521 5.11079 23.0106Z" fill="#A0ECFF"/>
    <path d="M5.11062 23.0108C5.11062 23.557 4.66457 24 4.1137 24C3.97566 24 3.84407 23.9721 3.72449 23.9218C4.08196 23.7715 4.33257 23.4201 4.33257 23.0107C4.33257 22.6972 4.00445 22.1199 3.72486 21.6846C3.76472 21.6224 3.80384 21.5628 3.84075 21.5075C3.9703 21.3136 4.25654 21.3131 4.38609 21.5068C4.68136 21.9485 5.11062 22.6521 5.11062 23.0108Z" fill="#60DAFF"/>
    <path d="M9.60994 23.0106C9.60994 23.557 9.16352 24 8.61283 24C8.06214 24 7.61572 23.557 7.61572 23.0106C7.61572 22.6521 8.04516 21.9484 8.34026 21.507C8.46981 21.3134 8.75586 21.3134 8.88522 21.507C9.1805 21.9484 9.60994 22.6521 9.60994 23.0106Z" fill="#A0ECFF"/>
    <path d="M9.60977 23.0108C9.60977 23.557 9.16372 24 8.61284 24C8.4748 24 8.3434 23.9721 8.22363 23.9218C8.5811 23.7715 8.83172 23.4201 8.83172 23.0107C8.83172 22.6972 8.50359 22.1199 8.224 21.6846C8.26405 21.6224 8.30299 21.5628 8.3399 21.5075C8.46945 21.3136 8.75568 21.3131 8.88523 21.5068C9.18051 21.9485 9.60977 22.6521 9.60977 23.0108Z" fill="#60DAFF"/>
    <path d="M14.109 23.0106C14.109 23.557 13.6625 24 13.1119 24C12.5612 24 12.1147 23.557 12.1147 23.0106C12.1147 22.6521 12.5442 21.9484 12.8395 21.507C12.9688 21.3134 13.2549 21.3134 13.3842 21.507C13.6797 21.9484 14.109 22.6521 14.109 23.0106Z" fill="#A0ECFF"/>
    <path d="M14.109 23.0108C14.109 23.557 13.6627 24 13.1119 24C12.9738 24 12.8424 23.9721 12.7227 23.9218C13.0801 23.7715 13.3307 23.4201 13.3307 23.0107C13.3307 22.6972 13.0026 22.1199 12.723 21.6846C12.7631 21.6224 12.802 21.5628 12.8391 21.5075C12.9685 21.3136 13.2549 21.3131 13.3844 21.5068C13.6795 21.9485 14.109 22.6521 14.109 23.0108Z" fill="#60DAFF"/>
    <path d="M18.6081 23.0106C18.6081 23.557 18.1617 24 17.611 24C17.0603 24 16.6139 23.557 16.6139 23.0106C16.6139 22.6521 17.0433 21.9484 17.3386 21.507C17.468 21.3134 17.7542 21.3134 17.8834 21.507C18.1789 21.9484 18.6081 22.6521 18.6081 23.0106Z" fill="#A0ECFF"/>
    <path d="M18.6081 23.0108C18.6081 23.557 18.1619 24 17.611 24C17.473 24 17.3416 23.9721 17.2218 23.9218C17.5795 23.7715 17.8299 23.4201 17.8299 23.0107C17.8299 22.6972 17.5018 22.1199 17.2222 21.6846C17.2622 21.6224 17.3013 21.5628 17.3383 21.5075C17.4676 21.3136 17.754 21.3131 17.8836 21.5068C18.1787 21.9485 18.6081 22.6521 18.6081 23.0108Z" fill="#60DAFF"/>
    <path d="M7.36043 19.6855C7.36043 20.2319 6.91401 20.6748 6.36332 20.6748C5.81263 20.6748 5.36621 20.2319 5.36621 19.6855C5.36621 19.327 5.79565 18.6231 6.09074 18.1816C6.22011 17.9883 6.50634 17.9883 6.63571 18.1816C6.93099 18.6231 7.36043 19.327 7.36043 19.6855Z" fill="#A0ECFF"/>
    <path d="M7.36032 19.6855C7.36032 20.2317 6.91408 20.6748 6.36321 20.6748C6.22517 20.6748 6.09377 20.6468 5.974 20.5964C6.33165 20.4463 6.58208 20.0947 6.58208 19.6855C6.58208 19.372 6.25414 18.7947 5.97437 18.3594C6.01441 18.297 6.05354 18.2377 6.09045 18.1822C6.21982 17.9885 6.50623 17.9879 6.63579 18.1816C6.93088 18.6231 7.36032 19.3268 7.36032 19.6855Z" fill="#60DAFF"/>
    <path d="M11.8596 19.6855C11.8596 20.2319 11.4132 20.6748 10.8625 20.6748C10.3118 20.6748 9.86536 20.2319 9.86536 19.6855C9.86536 19.327 10.2948 18.6231 10.5899 18.1816C10.7193 17.9883 11.0055 17.9883 11.1349 18.1816C11.4301 18.6231 11.8596 19.327 11.8596 19.6855Z" fill="#A0ECFF"/>
    <path d="M11.8593 19.6855C11.8593 20.2317 11.4131 20.6748 10.8624 20.6748C10.7242 20.6748 10.5928 20.6468 10.473 20.5964C10.8307 20.4463 11.0811 20.0947 11.0811 19.6855C11.0811 19.372 10.7532 18.7947 10.4734 18.3594C10.5134 18.297 10.5526 18.2377 10.5895 18.1822C10.7188 17.9885 11.0053 17.9879 11.1348 18.1816C11.4299 18.6231 11.8593 19.3268 11.8593 19.6855Z" fill="#60DAFF"/>
    <path d="M16.3586 19.6855C16.3586 20.2319 15.9122 20.6748 15.3615 20.6748C14.8108 20.6748 14.3644 20.2319 14.3644 19.6855C14.3644 19.327 14.7938 18.6231 15.0889 18.1816C15.2183 17.9883 15.5045 17.9883 15.6339 18.1816C15.9292 18.6231 16.3586 19.327 16.3586 19.6855Z" fill="#A0ECFF"/>
    <path d="M16.3585 19.6855C16.3585 20.2317 15.9123 20.6748 15.3616 20.6748C15.2235 20.6748 15.0919 20.6468 14.9722 20.5964C15.3298 20.4463 15.5803 20.0947 15.5803 19.6855C15.5803 19.372 15.2523 18.7947 14.9725 18.3594C15.0126 18.297 15.0517 18.2377 15.0886 18.1822C15.218 17.9885 15.5044 17.9879 15.634 18.1816C15.929 18.6231 16.3585 19.3268 16.3585 19.6855Z" fill="#60DAFF"/>
    <path d="M20.8577 19.6855C20.8577 20.2319 20.4113 20.6748 19.8606 20.6748C19.3099 20.6748 18.8635 20.2319 18.8635 19.6855C18.8635 19.327 19.293 18.6231 19.5881 18.1816C19.7176 17.9883 20.0037 17.9883 20.133 18.1816C20.4283 18.6231 20.8577 19.327 20.8577 19.6855Z" fill="#A0ECFF"/>
    <path d="M20.8576 19.6855C20.8576 20.2317 20.4113 20.6748 19.8606 20.6748C19.7226 20.6748 19.591 20.6468 19.4714 20.5964C19.8289 20.4463 20.0795 20.0947 20.0795 19.6855C20.0795 19.372 19.7514 18.7947 19.4716 18.3594C19.5117 18.297 19.5508 18.2377 19.5877 18.1822C19.7173 17.9885 20.0035 17.9879 20.133 18.1816C20.4283 18.6231 20.8576 19.3268 20.8576 19.6855Z" fill="#60DAFF"/>
</svg>