<svg width="24" height="24" viewBox="0 0 24 24" fill="none" xmlns="http://www.w3.org/2000/svg">
    <rect opacity="0.01" width="24" height="24" fill="white"/>
    <path d="M20.7511 8.00101C20.55 4.65286 17.7939 2 14.4226 2C11.7039 2 9.38501 3.72568 8.48376 6.14997C6.1424 6.1784 4.25293 8.09997 4.25293 10.4674C4.25293 12.8527 6.17059 14.7865 8.53632 14.7865H20.6335C22.4926 14.7865 23.9998 13.2668 23.9998 11.3922C23.9998 9.55739 22.5556 8.0636 20.7511 8.00101Z" fill="#C4E1E8"/>
    <path d="M24 11.392C24 13.2665 22.4927 14.7863 20.6334 14.7863H20.3727C20.6168 14.3166 20.7548 13.7816 20.7548 13.2146C20.7548 11.38 19.3109 9.88602 17.5062 9.82325C17.3053 6.47528 14.5488 3.82205 11.1775 3.82205C10.723 3.82205 10.2797 3.87024 9.85254 3.962C11.0057 2.75271 12.627 2 14.4227 2C17.7938 2 20.5503 4.65267 20.7513 8.00119C22.556 8.06323 24 9.5572 24 11.392Z" fill="#A4D5DD"/>
    <path d="M19.0728 7.62704C18.9091 7.62704 18.7608 7.51442 18.7209 7.34696C18.6623 7.10104 18.5819 6.85845 18.4823 6.62656C18.403 6.44138 18.4874 6.22648 18.6709 6.14635C18.8547 6.06623 19.0679 6.15134 19.1472 6.33652C19.2633 6.60699 19.3568 6.88947 19.4251 7.17637C19.472 7.37244 19.3522 7.56962 19.1578 7.6167C19.1294 7.62353 19.1008 7.62704 19.0728 7.62704Z" fill="#C4E1E8"/>
    <path d="M17.8749 5.42234C17.7797 5.42234 17.6847 5.38468 17.6136 5.31009C16.7701 4.4239 15.6368 3.93575 14.4229 3.93575C14.2227 3.93575 14.0607 3.77236 14.0607 3.57075C14.0607 3.36896 14.2227 3.20557 14.4229 3.20557C15.8361 3.20557 17.1548 3.77328 18.1362 4.80441C18.2747 4.94989 18.2699 5.18104 18.1256 5.3208C18.0555 5.38856 17.9652 5.42234 17.8749 5.42234Z" fill="#C4E1E8"/>
    <path d="M3.33057 9.93531C3.4743 7.54166 5.4447 5.64502 7.85492 5.64502C9.79858 5.64502 11.4564 6.87868 12.1006 8.61174C13.7745 8.63223 15.1255 10.006 15.1255 11.6985C15.1255 13.4038 13.7544 14.7863 12.063 14.7863C11.3552 14.7863 4.14209 14.7863 3.41461 14.7863C2.08545 14.7863 1.00806 13.6998 1.00806 12.3596C1.00806 11.0478 2.04041 9.97999 3.33057 9.93531Z" fill="#F0F5F7"/>
    <path d="M15.1254 11.6991C15.1254 13.3897 13.7772 14.763 12.1053 14.7859C12.6066 14.2359 12.9122 13.5031 12.9122 12.698C12.9122 11.0055 11.5616 9.63153 9.88733 9.61104C9.24298 7.87816 7.58551 6.64432 5.64148 6.64432C5.41168 6.64432 5.18628 6.66168 4.96545 6.69491C5.74969 6.03931 6.75641 5.64551 7.85468 5.64551C9.79871 5.64551 11.4562 6.87879 12.1005 8.61223C13.7748 8.63272 15.1254 10.0061 15.1254 11.6991Z" fill="#DDE9ED"/>
    <path d="M10.5824 14.0958C10.5824 17.0422 8.21338 19.4309 5.2912 19.4309C2.36902 19.4309 0 17.0422 0 14.0958C0 11.1494 2.36902 8.76074 5.2912 8.76074C8.21338 8.76074 10.5824 11.1494 10.5824 14.0958Z" fill="#60DAFF"/>
    <path fill-rule="evenodd" clip-rule="evenodd" d="M7.85837 15.1031L8.40274 14.862C8.58603 14.7808 8.79953 14.8646 8.8801 15.0492C8.96067 15.2338 8.87735 15.4493 8.69425 15.5303L8.57743 15.5822C8.73563 15.6878 8.78763 15.9003 8.69168 16.0683C8.62467 16.1858 8.50272 16.2515 8.37729 16.2515C8.32218 16.2515 8.2667 16.238 8.21451 16.2114L8.22843 16.3403C8.25022 16.5408 8.10648 16.721 7.90763 16.7429C7.89426 16.7444 7.88108 16.7452 7.86789 16.7452C7.68552 16.7452 7.5286 16.6065 7.50846 16.4195L7.44419 15.8256C7.37845 15.8811 7.29587 15.9116 7.21128 15.9116C7.14975 15.9116 7.08731 15.8957 7.03018 15.8623C6.87894 15.774 6.81485 15.5924 6.86777 15.4316L6.45047 15.1895L6.4849 15.5067C6.50046 15.6505 6.43033 15.7899 6.30619 15.8625C6.18204 15.9347 6.02713 15.9265 5.91141 15.8414L5.6536 15.6518V16.1342C5.81913 16.168 5.94364 16.3154 5.94364 16.4922C5.94364 16.6492 5.84513 16.7826 5.70743 16.8342L6.18479 17.1855C6.34647 17.3044 6.38181 17.5328 6.26389 17.6958C6.19303 17.7936 6.0828 17.8457 5.9711 17.8457C5.89713 17.8457 5.82242 17.8228 5.75797 17.7755L5.6525 17.698C5.6417 17.8898 5.48441 18.0421 5.29142 18.0421C5.09842 18.0421 4.94095 17.8896 4.93033 17.6978L4.82468 17.7755C4.663 17.8943 4.4365 17.8586 4.31858 17.6958C4.20066 17.5328 4.23618 17.3044 4.39768 17.1855L4.87522 16.8342C4.73734 16.7826 4.63883 16.6492 4.63883 16.4922C4.63883 16.3154 4.76371 16.1678 4.92923 16.1342V15.6515L4.67105 15.8414C4.60788 15.888 4.53281 15.9116 4.45774 15.9116C4.3953 15.9116 4.33267 15.8953 4.27628 15.8625C4.15213 15.7899 4.08219 15.6505 4.09757 15.5067L4.13199 15.1895L3.71469 15.4316C3.76779 15.5924 3.70371 15.774 3.55246 15.8623C3.49533 15.8957 3.43289 15.9116 3.37119 15.9116C3.28659 15.9116 3.20401 15.8811 3.13846 15.8256L3.07419 16.4195C3.05387 16.6065 2.89694 16.7452 2.71457 16.7452C2.70139 16.7452 2.6882 16.7444 2.67484 16.7429C2.47599 16.721 2.33243 16.5408 2.35404 16.3403L2.36795 16.2114C2.31595 16.238 2.26029 16.2515 2.20517 16.2515C2.07975 16.2515 1.95798 16.1858 1.89096 16.0683C1.79483 15.9003 1.84684 15.6878 2.00504 15.5822L1.88822 15.5305C1.70511 15.4493 1.6218 15.2338 1.70236 15.0492C1.78275 14.8646 1.99662 14.7806 2.17954 14.8618L2.72391 15.1029C2.69919 14.9569 2.76438 14.804 2.89914 14.7254C3.05094 14.6366 3.24008 14.6717 3.35196 14.7994L3.76779 14.5581L3.4783 14.4298C3.34665 14.3715 3.26187 14.2404 3.26187 14.0954C3.26187 13.9507 3.34665 13.8194 3.4783 13.7613L3.76761 13.633L3.35105 13.3913C3.28147 13.4709 3.18222 13.515 3.08023 13.515C3.01853 13.515 2.95609 13.4991 2.89896 13.4657C2.76438 13.387 2.69901 13.2342 2.72391 13.088L2.17954 13.3293C2.13211 13.3503 2.08267 13.3601 2.03397 13.3601C1.89481 13.3601 1.76187 13.2787 1.70236 13.1419C1.6218 12.9571 1.70511 12.7418 1.88822 12.6605L2.00486 12.6089C1.84665 12.5032 1.79483 12.2907 1.89078 12.1227C1.98728 11.9536 2.1973 11.8923 2.36795 11.9793L2.35404 11.8508C2.33243 11.6503 2.47599 11.4699 2.67484 11.4481C2.87387 11.4262 3.0524 11.5711 3.07401 11.7714L3.13828 12.3651C3.2518 12.2691 3.41696 12.2496 3.55228 12.3286C3.70371 12.4168 3.76779 12.5987 3.71469 12.7595L4.13199 13.0017L4.09757 12.6842C4.082 12.5405 4.15213 12.401 4.27628 12.3286C4.40024 12.256 4.55515 12.2643 4.67105 12.3496L4.92923 12.5394V12.0566C4.76352 12.023 4.63883 11.8757 4.63883 11.6988C4.63883 11.5419 4.73734 11.4084 4.87522 11.3567L4.39768 11.0054C4.236 10.8867 4.20066 10.6581 4.31858 10.4953C4.43631 10.3323 4.66281 10.2964 4.8245 10.4155L4.93033 10.4932C4.94095 10.3014 5.09842 10.1489 5.29142 10.1489C5.48423 10.1489 5.64151 10.3012 5.6525 10.4929L5.75797 10.4155C5.91947 10.2966 6.14597 10.3323 6.26389 10.4953C6.38181 10.6581 6.34629 10.8865 6.18479 11.0054L5.70725 11.3567C5.84513 11.4084 5.94364 11.5417 5.94364 11.6987C5.94364 11.8755 5.81894 12.0229 5.6536 12.0566V12.5392L5.91123 12.3496C6.02713 12.2643 6.18204 12.256 6.30619 12.3284C6.43033 12.401 6.50046 12.5404 6.4849 12.6842L6.45047 13.0015L6.86777 12.7595C6.81467 12.5987 6.87876 12.417 7.03 12.3286C7.1655 12.2496 7.33066 12.2691 7.444 12.3651L7.50827 11.7714C7.53006 11.5709 7.70896 11.4262 7.90763 11.4481C8.10648 11.4699 8.25003 11.6503 8.22843 11.8508L8.21451 11.9793C8.38498 11.8923 8.595 11.9536 8.6915 12.1227C8.78745 12.2907 8.73563 12.5032 8.57743 12.6089L8.69425 12.6607C8.87735 12.7418 8.96048 12.9572 8.8801 13.1419C8.82041 13.2787 8.68766 13.3603 8.54831 13.3603C8.49961 13.3603 8.45017 13.3503 8.40274 13.3293L7.85837 13.0881C7.88327 13.2344 7.81809 13.387 7.68332 13.4659C7.62619 13.4991 7.56375 13.515 7.50223 13.515C7.40006 13.515 7.301 13.4709 7.23123 13.3915L6.81467 13.6331L7.10416 13.7613C7.23563 13.8194 7.32059 13.9507 7.32059 14.0956C7.32059 14.2404 7.23563 14.3716 7.10416 14.4298L6.81467 14.5581L7.2305 14.7996C7.34238 14.6717 7.53171 14.6368 7.68332 14.7254C7.81809 14.804 7.88327 14.9569 7.85837 15.1031ZM5.50144 14.6362L5.50473 14.6382L5.67594 14.764L5.65323 14.5539C5.65314 14.5533 5.65314 14.5528 5.65314 14.5523C5.65314 14.5517 5.65314 14.5511 5.65305 14.5505C5.65122 14.533 5.65085 14.5153 5.65158 14.4974C5.65158 14.4963 5.65168 14.4952 5.65177 14.4941C5.65186 14.4931 5.65195 14.492 5.65195 14.4909C5.65323 14.4734 5.65525 14.456 5.65891 14.4387C5.65909 14.4381 5.65909 14.4377 5.65909 14.4374C5.66275 14.4208 5.6677 14.4041 5.67374 14.3877L5.67758 14.3781C5.68381 14.3626 5.69077 14.3473 5.69919 14.3323L5.69956 14.3319C5.69969 14.3316 5.6999 14.3313 5.70015 14.3309C5.70025 14.3308 5.70036 14.3306 5.70047 14.3305C5.7089 14.3159 5.71823 14.3026 5.7283 14.2897C5.7305 14.2867 5.7327 14.2839 5.73508 14.2812C5.74588 14.2679 5.75742 14.2555 5.76969 14.2443L5.77317 14.2411C5.78562 14.2302 5.79843 14.2202 5.81198 14.2112C5.81418 14.2097 5.8162 14.2081 5.81839 14.2068C5.83286 14.1974 5.84787 14.1894 5.86325 14.1824L5.86747 14.18L6.05826 14.0954L5.86747 14.0109C5.86619 14.0103 5.86496 14.0096 5.86372 14.0088C5.86227 14.008 5.8608 14.0071 5.85923 14.0065C5.84677 14.0005 5.83451 13.9939 5.8226 13.9865C5.81927 13.9845 5.81603 13.9823 5.81282 13.9801C5.81163 13.9793 5.81043 13.9785 5.80924 13.9777C5.79862 13.9703 5.78836 13.9623 5.77829 13.9537C5.77701 13.9525 5.77571 13.9515 5.77441 13.9504C5.7718 13.9482 5.7692 13.946 5.76676 13.9437C5.75669 13.9343 5.74735 13.9239 5.73819 13.9132C5.73705 13.9118 5.73583 13.9105 5.73461 13.9092C5.73309 13.9075 5.73155 13.9058 5.73014 13.904C5.71897 13.89 5.70853 13.875 5.69937 13.8588C5.69059 13.8436 5.68363 13.8281 5.6774 13.8122C5.67708 13.8114 5.67674 13.8106 5.6764 13.8098C5.67558 13.8078 5.67475 13.8058 5.67411 13.8037C5.66788 13.7871 5.66275 13.7703 5.65909 13.7533V13.753C5.65525 13.7354 5.65323 13.7177 5.65195 13.6998C5.65195 13.6988 5.65186 13.6978 5.65177 13.6967C5.65168 13.6957 5.65158 13.6947 5.65158 13.6937C5.65085 13.6758 5.6514 13.6581 5.65305 13.6405C5.65314 13.64 5.65314 13.6394 5.65314 13.6388C5.65314 13.6382 5.65314 13.6376 5.65323 13.637L5.67594 13.4269L5.50473 13.5528L5.50235 13.5543C5.48789 13.5647 5.47269 13.5741 5.45676 13.5824L5.45182 13.5848C5.43607 13.5927 5.41959 13.5997 5.40256 13.6053L5.40201 13.6055C5.3859 13.6106 5.36905 13.6145 5.35184 13.6175L5.34214 13.6189C5.32547 13.6213 5.30863 13.623 5.29142 13.623H5.29123C5.2742 13.623 5.25754 13.6213 5.24106 13.6191C5.2374 13.6186 5.23374 13.618 5.23007 13.6173C5.21341 13.6145 5.19712 13.6108 5.18137 13.6056C5.18039 13.6054 5.17942 13.605 5.17844 13.6046C5.17795 13.6044 5.17746 13.6042 5.17697 13.604C5.16178 13.599 5.14731 13.5929 5.13321 13.5859L5.12442 13.5816C5.10959 13.5739 5.09568 13.565 5.08213 13.5554C5.08139 13.5549 5.08053 13.5544 5.07966 13.5539C5.07901 13.5536 5.07835 13.5532 5.07773 13.5528L4.90671 13.4269L4.92942 13.637C4.92954 13.638 4.9295 13.639 4.92946 13.64C4.92944 13.6405 4.92942 13.6411 4.92942 13.6416C4.93106 13.6586 4.9318 13.6756 4.93088 13.6928C4.93088 13.6947 4.93072 13.6967 4.93055 13.6987C4.93047 13.6997 4.93039 13.7007 4.93033 13.7016C4.92923 13.7179 4.92722 13.7341 4.92392 13.7504C4.92374 13.751 4.92365 13.7517 4.92356 13.7523C4.92346 13.753 4.92337 13.7536 4.92319 13.7543C4.91971 13.7705 4.91477 13.7868 4.90891 13.8028L4.9047 13.8135C4.89865 13.8288 4.8917 13.844 4.88327 13.8588C4.88327 13.8589 4.88327 13.8589 4.88309 13.8589C4.88217 13.8606 4.88089 13.8621 4.87998 13.8637C4.87174 13.8778 4.86258 13.8912 4.85288 13.9036C4.85101 13.9061 4.84894 13.9083 4.84688 13.9105C4.8455 13.912 4.84413 13.9135 4.84281 13.9151C4.83438 13.9249 4.82559 13.9345 4.81626 13.9433C4.81364 13.9458 4.81088 13.9482 4.80806 13.9506C4.80653 13.9519 4.80498 13.9532 4.80344 13.9546C4.79392 13.9627 4.78421 13.9703 4.77396 13.9773C4.7692 13.9806 4.76444 13.9837 4.75949 13.9869C4.74814 13.9939 4.73624 14.0002 4.72434 14.0061C4.72278 14.0068 4.72127 14.0077 4.71976 14.0086C4.71825 14.0095 4.71674 14.0103 4.71518 14.0111L4.52439 14.0954L4.71518 14.18C4.71601 14.1804 4.71678 14.1808 4.71756 14.1813C4.71834 14.1818 4.71912 14.1822 4.71994 14.1826C4.73496 14.1896 4.74961 14.1974 4.76352 14.2064C4.76645 14.2082 4.76902 14.2101 4.77176 14.2119C4.7844 14.2206 4.79648 14.2298 4.80802 14.24L4.81351 14.2446C4.82541 14.2557 4.8364 14.2677 4.84702 14.2804L4.85507 14.2906C4.86423 14.3026 4.87284 14.315 4.88071 14.3283L4.88382 14.3334C4.89188 14.3476 4.89865 14.3622 4.90451 14.377C4.90581 14.38 4.90699 14.3832 4.90814 14.3863C4.90846 14.3871 4.90878 14.388 4.90909 14.3888C4.91495 14.4047 4.91971 14.4206 4.92319 14.4366L4.92411 14.4411C4.92722 14.4571 4.92923 14.4732 4.93033 14.4892L4.93106 14.4985C4.9318 14.5156 4.93125 14.5326 4.9296 14.5496C4.92951 14.5504 4.92951 14.5511 4.92951 14.5518C4.92951 14.5526 4.92951 14.5533 4.92942 14.554L4.90671 14.7642L5.07773 14.6382C5.07857 14.6376 5.07941 14.6372 5.08022 14.6367C5.0812 14.6362 5.08215 14.6356 5.08304 14.6349C5.09604 14.6259 5.10941 14.6174 5.12351 14.61C5.12573 14.6088 5.12794 14.6078 5.13013 14.6067C5.13173 14.606 5.13331 14.6052 5.13486 14.6045C5.14768 14.5984 5.16086 14.5928 5.17441 14.5882C5.17697 14.5871 5.17972 14.586 5.18247 14.5851C5.19748 14.5805 5.21286 14.5769 5.22861 14.574L5.22865 14.574C5.2334 14.5732 5.23814 14.5725 5.24289 14.572C5.25717 14.5699 5.27182 14.5686 5.28665 14.5684C5.28739 14.5684 5.28817 14.5684 5.28894 14.5683C5.28972 14.5682 5.2905 14.5681 5.29123 14.5681C5.29187 14.5681 5.29256 14.5682 5.29325 14.5683C5.29393 14.5684 5.29462 14.5684 5.29526 14.5684C5.31064 14.5686 5.32566 14.5699 5.34049 14.572C5.34487 14.5725 5.34907 14.5732 5.35328 14.574L5.3533 14.574C5.3696 14.5768 5.38571 14.5805 5.40128 14.5854L5.40531 14.5869C5.42069 14.5921 5.4357 14.5984 5.45017 14.6056C5.45136 14.6062 5.45264 14.6068 5.45392 14.6074C5.4552 14.608 5.45648 14.6086 5.45767 14.6093C5.47306 14.6172 5.48752 14.6262 5.50144 14.6362Z" fill="#F0F5F7"/>
    <path d="M2.20679 4.76536C2.20624 4.76536 2.20551 4.76536 2.20496 4.76536C2.00501 4.76444 1.84351 4.60012 1.84461 4.39851L1.84534 4.25543C1.84626 4.05437 2.00831 3.89209 2.20734 3.89209H2.20917C2.40912 3.89301 2.57062 4.05733 2.56952 4.25894L2.56898 4.40202C2.56788 4.60308 2.40601 4.76536 2.20679 4.76536Z" fill="#60DAFF"/>
    <path d="M2.20246 6.22141C2.20173 6.22141 2.20118 6.22141 2.20063 6.22141C2.00068 6.22049 1.83918 6.05618 1.84009 5.85457L1.84082 5.71148C1.84174 5.51043 2.00379 5.34814 2.20282 5.34814H2.20465C2.40479 5.34907 2.56611 5.5132 2.56519 5.71499L2.56446 5.85789C2.56354 6.05913 2.40149 6.22141 2.20246 6.22141Z" fill="#60DAFF"/>
    <path d="M2.99945 5.42448C2.99872 5.42448 2.99817 5.42448 2.99762 5.42448L2.85553 5.42374C2.6554 5.42281 2.49408 5.2585 2.495 5.05689C2.4961 4.8551 2.66126 4.69226 2.85901 4.69336L3.0011 4.6941C3.20105 4.69503 3.36255 4.85934 3.36164 5.06114C3.36054 5.26219 3.19867 5.42448 2.99945 5.42448Z" fill="#60DAFF"/>
    <path d="M1.55256 5.42007C1.55182 5.42007 1.55127 5.42007 1.55072 5.42007L1.40863 5.41934C1.20868 5.41841 1.04718 5.2541 1.0481 5.05249C1.04902 4.85143 1.21106 4.68896 1.41028 4.68896H1.41193L1.55402 4.6897C1.75415 4.69063 1.91547 4.85476 1.91455 5.05655C1.91364 5.25761 1.75177 5.42007 1.55256 5.42007Z" fill="#60DAFF"/>
    <path d="M12.4373 18.2387C12.4367 18.2387 12.4362 18.2387 12.4356 18.2387C12.2355 18.2378 12.0742 18.0735 12.0751 17.8718L12.0758 17.7288C12.0767 17.5277 12.2388 17.3652 12.4378 17.3652H12.4396C12.6396 17.3663 12.8011 17.5305 12.8 17.7321L12.7994 17.8752C12.7985 18.0764 12.6365 18.2387 12.4373 18.2387Z" fill="#60DAFF"/>
    <path d="M12.4329 19.6947C12.4321 19.6947 12.4318 19.6947 12.431 19.6947C12.2311 19.6936 12.0696 19.5295 12.0707 19.3279L12.0712 19.1848C12.0721 18.9838 12.2342 18.8213 12.4334 18.8213H12.4351C12.6352 18.8222 12.7965 18.9865 12.7956 19.1881L12.7949 19.3312C12.794 19.5323 12.6321 19.6947 12.4329 19.6947Z" fill="#60DAFF"/>
    <path d="M13.2299 18.8976C13.2293 18.8976 13.2288 18.8976 13.228 18.8976L13.0859 18.8969C12.886 18.8958 12.7247 18.7316 12.7256 18.5298C12.7265 18.3288 12.8884 18.1665 13.0876 18.1665H13.0894L13.2315 18.1672C13.4315 18.1682 13.593 18.3325 13.592 18.5341C13.5911 18.7351 13.4291 18.8976 13.2299 18.8976Z" fill="#60DAFF"/>
    <path d="M11.783 18.8932C11.7824 18.8932 11.7817 18.8932 11.7811 18.8932L11.639 18.8925C11.4391 18.8916 11.2776 18.7272 11.2787 18.5256C11.2796 18.3244 11.4417 18.1621 11.6407 18.1621H11.6425L11.7846 18.1628C11.9847 18.164 12.1461 18.3281 12.1451 18.5299C12.144 18.7309 11.9822 18.8932 11.783 18.8932Z" fill="#60DAFF"/>
    <path d="M16.1514 17.8573C16.1506 17.8573 16.1501 17.8573 16.1495 17.8573H16.1446C15.9445 17.8564 15.7831 17.6921 15.7841 17.4903C15.785 17.2892 15.947 17.127 16.1462 17.127H16.1479H16.153C16.353 17.1279 16.5143 17.2922 16.5134 17.4938C16.5125 17.6949 16.3506 17.8573 16.1514 17.8573Z" fill="#60DAFF"/>
    <path d="M8.86359 20.9726H8.85846C8.65851 20.9726 8.49646 20.8092 8.49646 20.6074C8.49646 20.4058 8.65851 20.2422 8.85846 20.2422H8.86359C9.06354 20.2422 9.22577 20.4058 9.22577 20.6074C9.22577 20.8092 9.06354 20.9726 8.86359 20.9726Z" fill="#60DAFF"/>
    <path d="M17.532 19.4626H17.5269C17.327 19.4626 17.1649 19.2992 17.1649 19.0976C17.1649 18.8958 17.327 18.7324 17.5269 18.7324H17.532C17.7322 18.7324 17.8942 18.8958 17.8942 19.0976C17.8942 19.2992 17.7322 19.4626 17.532 19.4626Z" fill="#60DAFF"/>
    <path d="M22.2372 18.5956C22.2367 18.5956 22.2361 18.5956 22.2356 18.5956H22.2307C22.0305 18.5947 21.8692 18.4304 21.8701 18.2288C21.871 18.0275 22.0331 17.8652 22.2321 17.8652H22.234H22.2389C22.439 17.8662 22.6003 18.0305 22.5994 18.2321C22.5985 18.4331 22.4365 18.5956 22.2372 18.5956Z" fill="#60DAFF"/>
    <path d="M20.0905 17.8573C20.09 17.8573 20.0894 17.8573 20.0889 17.8573H20.0837C19.8838 17.8564 19.7225 17.6921 19.7234 17.4903C19.7243 17.2892 19.8864 17.127 20.0854 17.127H20.0872H20.0922C20.2923 17.1279 20.4536 17.2922 20.4527 17.4938C20.4518 17.6949 20.2897 17.8573 20.0905 17.8573Z" fill="#60DAFF"/>
    <path d="M4.2555 3.05703C4.25495 3.05703 4.2544 3.05703 4.25367 3.05703H4.24872C4.04877 3.05611 3.88727 2.89179 3.88819 2.69018C3.88929 2.48894 4.05115 2.32666 4.25037 2.32666H4.2522H4.25714C4.4571 2.32758 4.6186 2.4919 4.61768 2.69351C4.61658 2.89475 4.45472 3.05703 4.2555 3.05703Z" fill="#60DAFF"/>
    <path d="M7.19788 4.62246C7.19715 4.62246 7.1966 4.62246 7.19605 4.62246H7.1911C6.99115 4.62154 6.82965 4.45722 6.83057 4.25543C6.83149 4.05437 6.99353 3.89209 7.19275 3.89209H7.1944H7.19953C7.39948 3.89301 7.56098 4.05733 7.55988 4.25894C7.55915 4.46018 7.3971 4.62246 7.19788 4.62246Z" fill="#60DAFF"/>
    <path d="M1.42432 20.5971C1.42359 20.5971 1.42304 20.5971 1.42249 20.5971H1.41755C1.21741 20.5961 1.0561 20.4318 1.05701 20.2302C1.05793 20.029 1.21997 19.8667 1.41919 19.8667H1.42084H1.42597C1.62592 19.8676 1.78742 20.0319 1.78632 20.2335C1.7854 20.4346 1.62354 20.5971 1.42432 20.5971Z" fill="#60DAFF"/>
</svg>