<svg width="24" height="24" viewBox="0 0 24 24" fill="none" xmlns="http://www.w3.org/2000/svg">
    <rect opacity="0.01" width="24" height="24" fill="white"/>
    <path fill-rule="evenodd" clip-rule="evenodd" d="M12.438 2.898C12.438 3.13992 12.2419 3.336 12 3.336C11.7581 3.336 11.562 3.13992 11.562 2.898V0.438C11.562 0.19608 11.7581 0 12 0C12.2419 0 12.438 0.19608 12.438 0.438V2.898ZM16.3349 4.51746C16.5477 4.63116 16.8124 4.55076 16.926 4.338L18.1572 2.2044C18.1624 2.19618 18.1672 2.18778 18.1718 2.1792C18.2855 1.96644 18.2051 1.70178 17.9923 1.58814C17.7796 1.47444 17.5149 1.55484 17.4013 1.7676L16.1701 3.9012C16.1649 3.90942 16.16 3.91782 16.1555 3.9264C16.0418 4.13916 16.1222 4.40382 16.3349 4.51746ZM7.8276 3.9012C7.95516 4.10592 7.89264 4.37532 7.68786 4.50294C7.48314 4.6305 7.21374 4.56798 7.08612 4.3632C7.08102 4.35498 7.07616 4.34658 7.0716 4.338L5.8404 2.2068C5.71284 2.00208 5.77536 1.73268 5.98014 1.60506C6.18486 1.4775 6.45426 1.54002 6.58188 1.7448C6.58698 1.75302 6.59184 1.76142 6.59646 1.77L7.8276 3.9012ZM4.338 7.0716C4.54272 7.19916 4.6053 7.46856 4.47774 7.67334C4.35612 7.86852 4.10406 7.93596 3.9012 7.8276L1.7676 6.5964C1.56288 6.46884 1.5003 6.19944 1.62786 5.99466C1.74948 5.79948 2.00154 5.73204 2.2044 5.8404L4.338 7.0716ZM3.336 11.9976C3.336 11.7557 3.13992 11.5596 2.898 11.5596H0.438C0.19608 11.5596 0 11.7557 0 11.9976C0 12.2395 0.19608 12.4356 0.438 12.4356H2.898C3.13992 12.4356 3.336 12.2395 3.336 11.9976ZM3.8988 16.1676C4.10352 16.04 4.37292 16.1026 4.50054 16.3073C4.6281 16.5121 4.56558 16.7815 4.3608 16.9091C4.35258 16.9142 4.34418 16.919 4.3356 16.9236L2.2068 18.1572C2.00208 18.2848 1.73268 18.2222 1.60506 18.0175C1.4775 17.8127 1.54002 17.5433 1.7448 17.4157C1.75302 17.4106 1.76142 17.4058 1.77 17.4011L3.8988 16.1676ZM7.67334 19.5199C7.46856 19.3923 7.19916 19.4549 7.0716 19.6596L5.84046 21.7932C5.8353 21.8014 5.83044 21.8098 5.82588 21.8184C5.71218 22.0312 5.79258 22.2958 6.00534 22.4095C6.2181 22.5232 6.48276 22.4428 6.5964 22.23L7.8276 20.0964C7.93596 19.8935 7.86852 19.6415 7.67334 19.5199ZM11.5596 21.0996C11.5596 20.8577 11.7557 20.6616 11.9976 20.6616C12.2395 20.6616 12.4356 20.8577 12.4356 21.0996V23.562C12.4356 23.8039 12.2395 24 11.9976 24C11.7557 24 11.5596 23.8039 11.5596 23.562V21.0996ZM16.3471 19.5077C16.1343 19.6214 16.054 19.886 16.1676 20.0988L17.3987 22.2324C17.4034 22.241 17.4082 22.2494 17.4133 22.2576C17.5409 22.4624 17.8103 22.525 18.0151 22.3973C18.2198 22.2697 18.2824 22.0003 18.1548 21.7956L16.9236 19.662C16.802 19.4669 16.5499 19.3994 16.3471 19.5077ZM19.6596 16.926C19.4468 16.8124 19.3664 16.5477 19.4801 16.3349C19.5938 16.1222 19.8584 16.0418 20.0712 16.1555L20.0822 16.1616C20.087 16.1643 20.0917 16.1671 20.0964 16.1701L22.23 17.4013C22.4428 17.5149 22.5232 17.7796 22.4095 17.9923C22.2958 18.2051 22.0312 18.2855 21.8184 18.1718C21.8098 18.1672 21.8014 18.1624 21.7932 18.1572L19.6596 16.926ZM20.6616 12C20.6616 12.2419 20.8577 12.438 21.0996 12.438H23.562C23.8039 12.438 24 12.2419 24 12C24 11.7581 23.8039 11.562 23.562 11.562H21.0996C20.8577 11.562 20.6616 11.7581 20.6616 12ZM20.0988 7.83C19.8941 7.95756 19.6247 7.89504 19.4971 7.69026C19.3695 7.48554 19.432 7.21614 19.6368 7.08852L19.6464 7.0827C19.6516 7.07969 19.6567 7.07677 19.662 7.07394L21.7956 5.84274C22.0084 5.7291 22.273 5.80944 22.3867 6.0222C22.495 6.225 22.4275 6.47712 22.2324 6.59874L20.0988 7.83ZM17.9988 11.9988C17.9988 8.68512 15.3125 5.9988 11.9988 5.9988C8.68512 5.9988 5.9988 8.68512 5.9988 11.9988C5.9988 15.3125 8.68512 17.9988 11.9988 17.9988C15.3125 17.9988 17.9988 15.3125 17.9988 11.9988Z" fill="#FFD20D"/>
</svg>